<?xml version="1.0" standalone="no"?>
<!DOCTYPE svg PUBLIC "-//W3C//DTD SVG 20010904//EN"
 "http://www.w3.org/TR/2001/REC-SVG-20010904/DTD/svg10.dtd">
<svg version="1.0" xmlns="http://www.w3.org/2000/svg"
 width="780.000000pt" height="314.000000pt" viewBox="0 0 780.000000 314.000000"
 preserveAspectRatio="xMidYMid meet">

<g transform="translate(0.000000,314.000000) scale(0.100000,-0.100000)"
fill="#000000" stroke="none">
<path d="M2970 2810 l0 -330 105 0 105 0 0 225 0 225 230 0 230 0 0 -345 0
-345 100 0 100 0 0 298 c0 165 3 367 7 450 l6 152 -441 0 -442 0 0 -330z"/>
<path d="M3930 2690 l0 -450 105 0 105 0 0 345 0 345 230 0 230 0 0 -225 0
-225 100 0 100 0 0 178 c0 99 3 247 7 330 l6 152 -441 0 -442 0 0 -450z"/>
<path d="M3640 1814 c0 -190 -4 -344 -8 -342 -5 2 -108 66 -230 143 l-221 140
-1 148 0 147 -105 0 -105 0 0 -197 0 -198 437 -267 c240 -147 439 -266 441
-264 2 3 0 236 -4 520 l-7 516 -98 0 -99 0 0 -346z"/>
<path d="M3930 1639 c0 -286 3 -518 8 -516 4 3 167 103 362 222 195 120 388
238 428 262 l72 44 0 200 0 199 -100 0 -99 0 -3 -147 -3 -147 -225 -143 -225
-142 -3 344 -2 345 -105 0 -105 0 0 -521z"/>
<path d="M239 652 c-159 -53 -250 -190 -236 -355 15 -179 138 -287 325 -287
94 0 159 27 214 88 49 54 62 79 46 88 -7 4 -16 0 -22 -12 -6 -10 -30 -38 -53
-61 -53 -53 -126 -72 -206 -52 -71 17 -149 94 -171 169 -45 151 6 340 105 391
105 53 233 -8 291 -138 10 -24 23 -43 28 -43 6 0 10 49 10 115 0 106 -1 115
-19 115 -10 0 -26 -11 -35 -24 l-15 -24 -43 20 c-59 29 -149 33 -219 10z"/>
<path d="M2927 656 c-75 -28 -117 -86 -117 -161 0 -98 40 -139 195 -197 119
-44 155 -79 155 -149 0 -43 -5 -55 -29 -80 -27 -26 -36 -29 -94 -29 -57 0 -71
4 -112 32 -33 22 -60 53 -84 95 -20 34 -39 62 -43 63 -5 0 -8 -49 -8 -110 0
-102 1 -110 19 -110 11 0 27 10 35 21 15 22 15 22 53 3 23 -11 67 -20 113 -22
67 -3 81 0 130 25 93 48 130 137 95 229 -20 54 -72 91 -170 124 -72 24 -149
70 -164 99 -6 11 -11 38 -11 59 0 82 92 117 186 72 43 -22 82 -68 109 -132 26
-63 35 -45 35 67 0 90 -3 107 -17 112 -11 4 -23 -2 -36 -19 l-18 -25 -39 19
c-51 26 -135 32 -183 14z"/>
<path d="M3809 656 c-192 -52 -295 -249 -232 -447 24 -75 107 -158 182 -182
102 -33 229 -18 303 34 34 25 88 95 88 116 0 25 -19 13 -50 -32 -42 -61 -96
-88 -181 -89 -83 0 -146 34 -190 101 -44 71 -52 105 -47 216 3 85 8 110 30
152 43 84 91 115 171 115 86 -1 165 -61 204 -157 31 -75 43 -56 43 67 0 95 -2
112 -17 117 -11 4 -23 -2 -36 -19 l-19 -25 -56 23 c-63 26 -123 29 -193 10z"/>
<path d="M4380 403 c-62 -148 -123 -285 -136 -305 -17 -26 -35 -41 -64 -49
-22 -7 -40 -16 -40 -21 0 -4 61 -8 135 -8 74 0 135 4 135 8 0 5 -21 15 -47 23
-68 21 -73 35 -42 122 l25 72 124 0 123 0 34 -79 c19 -44 31 -86 29 -93 -3 -7
-26 -18 -51 -25 -25 -7 -45 -16 -45 -20 0 -4 70 -8 155 -8 85 0 155 4 155 8 0
5 -18 14 -39 20 -21 7 -45 22 -53 35 -8 12 -63 139 -123 282 -59 143 -112 270
-118 283 -25 54 -41 29 -157 -245z m146 4 l50 -122 -99 -3 c-55 -1 -102 0
-105 2 -5 6 90 246 98 246 3 0 28 -55 56 -123z"/>
<path d="M6695 418 c-131 -311 -148 -342 -190 -362 -18 -9 -38 -16 -44 -16 -6
0 -11 -4 -11 -10 0 -6 52 -10 135 -10 74 0 135 4 135 9 0 5 -20 14 -44 20 -24
6 -49 17 -56 26 -16 19 -9 63 19 128 l21 48 121 -3 121 -3 34 -83 c19 -45 32
-87 29 -92 -4 -6 -26 -15 -51 -21 -24 -6 -44 -15 -44 -20 0 -5 70 -9 155 -9
85 0 155 4 155 8 0 5 -18 14 -40 21 -21 6 -45 20 -52 30 -8 11 -67 148 -133
305 -90 215 -123 286 -136 286 -13 0 -44 -64 -124 -252z m143 -20 l50 -118
-108 0 -109 0 52 125 c28 69 54 122 58 117 4 -4 29 -60 57 -124z"/>
<path d="M612 648 c3 -7 18 -16 35 -20 44 -11 87 -66 171 -215 l72 -128 0
-106 c0 -119 -2 -123 -67 -134 -89 -14 -38 -25 122 -25 158 0 211 10 126 25
-71 12 -76 21 -76 132 1 112 5 122 110 283 70 107 103 142 158 165 21 8 35 20
32 25 -10 16 -258 13 -253 -2 3 -7 21 -16 42 -19 77 -13 74 -32 -27 -187 l-74
-114 -55 94 c-112 188 -113 195 -42 207 21 3 39 12 42 19 3 9 -33 12 -158 12
-122 0 -161 -3 -158 -12z"/>
<path d="M1342 649 c3 -8 19 -16 36 -20 63 -13 62 -7 62 -286 0 -148 -4 -262
-10 -273 -6 -11 -26 -21 -50 -25 -84 -14 -35 -25 115 -25 151 0 200 11 110 24
-29 5 -49 14 -55 26 -5 10 -10 73 -10 139 l0 121 63 0 c109 0 130 -24 171
-195 20 -86 46 -115 107 -122 81 -9 122 23 135 105 5 35 4 42 -10 42 -12 0
-16 -10 -16 -38 0 -43 -14 -62 -47 -62 -31 0 -48 31 -68 123 -21 95 -42 122
-115 147 -43 15 -51 20 -35 25 65 20 127 58 145 87 29 47 26 109 -5 146 -48
57 -88 66 -319 70 -169 3 -207 1 -204 -9z m363 -33 c42 -18 65 -61 65 -124 0
-87 -57 -132 -170 -132 l-60 0 0 135 0 135 65 0 c36 0 81 -6 100 -14z"/>
<path d="M2022 648 c3 -7 19 -15 36 -19 63 -13 62 -10 62 -250 0 -130 4 -229
11 -246 24 -64 93 -108 189 -122 147 -20 282 41 310 140 6 18 10 117 10 219 0
102 3 195 6 208 7 26 51 52 89 52 16 0 25 6 25 15 0 13 -23 15 -145 15 -122 0
-145 -2 -145 -15 0 -9 9 -15 25 -15 38 0 85 -27 95 -56 6 -14 10 -111 10 -215
0 -170 -2 -194 -20 -229 -29 -57 -85 -84 -175 -84 -81 0 -134 25 -160 74 -20
38 -22 484 -3 496 7 4 28 10 47 13 19 4 36 12 39 19 3 9 -32 12 -153 12 -119
0 -156 -3 -153 -12z"/>
<path d="M4910 651 c0 -6 12 -13 28 -16 15 -3 38 -11 52 -18 l25 -13 3 -257
c1 -159 -2 -265 -8 -276 -6 -12 -26 -22 -50 -26 -84 -14 -35 -25 115 -25 151
0 200 11 110 24 -29 5 -49 14 -55 26 -5 10 -10 68 -10 129 l0 111 59 0 c32 0
89 9 125 20 177 55 209 240 54 306 -36 15 -78 19 -245 22 -140 3 -203 0 -203
-7z m350 -36 c49 -25 70 -61 70 -122 0 -30 -7 -67 -15 -83 -21 -40 -82 -70
-145 -70 l-50 0 0 145 0 145 55 0 c31 0 69 -7 85 -15z"/>
<path d="M5502 648 c3 -7 20 -16 39 -21 61 -16 59 -6 59 -292 0 -289 2 -281
-64 -292 -80 -13 -27 -23 119 -23 85 0 155 4 155 8 0 5 -21 15 -47 23 l-48 14
-3 269 c-1 164 1 273 7 279 6 6 27 13 47 16 21 3 39 12 42 19 3 9 -32 12 -153
12 -118 0 -156 -3 -153 -12z"/>
<path d="M5870 580 c0 -94 13 -103 49 -34 37 70 62 84 142 84 l69 0 0 -279 c0
-211 -3 -281 -12 -289 -7 -5 -32 -13 -55 -17 -89 -14 -38 -25 122 -25 159 0
211 10 124 25 -80 14 -79 10 -79 315 l0 270 74 0 c72 0 75 -1 105 -35 17 -19
38 -49 46 -65 25 -49 35 -35 35 50 l0 80 -310 0 -310 0 0 -80z"/>
<path d="M7225 650 c-6 -10 1 -14 47 -24 58 -13 58 -15 58 -291 0 -284 1 -280
-71 -291 -98 -16 -17 -24 245 -24 l283 0 7 53 c8 72 8 127 -2 127 -5 0 -27
-29 -50 -65 -24 -39 -52 -69 -67 -75 -15 -6 -68 -10 -120 -10 -72 0 -97 4
-109 16 -14 13 -16 52 -16 274 0 256 0 259 22 274 12 9 35 16 50 16 18 0 28 5
28 15 0 13 -23 15 -149 15 -90 0 -152 -4 -156 -10z"/>
</g>
</svg>
